# xmcd
#
# Track frame offsets: 
#        150
#        12062
#        25494
#        37601
#        49231
#        62532
#        75818
#        89076
#        101767
#        114807
#        127873
#        140986
#        154106
#        169502
#        181907
#        194963
#        207714
#        220103
#        233310
#        245926
#        258237
#        271183
#        283129
#        295135
#
# Disc length: 4103 seconds
#
# Revision: 0
# Processed by: cddbd v1.5.1PL0 Copyright (c) Steve Scherf et al.
# Submitted via: ExactAudioCopy v0.95a4
#
DISCID=54100518
DTITLE=The Delmore Brothers - Fifty Miles To Travel
DYEAR=1900
DGENRE=Country
TTITLE0=Fifty Miles To Travel (King 739 - Unissued alt. take)
TTITLE1=(When I'm Gone) Don't Talk About Me (Unissued)
TTITLE2=I Let The Freight Train Carry Me On (King 927)
TTITLE3=I Won't Be Worried Long (King 1053)
TTITLE4=Stop That Boogie (King 751)
TTITLE5=My Heart Will Be Cryin' (King 873)
TTITLE6=Blues Stay Away From Me (King 803 - Unissued Take 1)
TTITLE7=Shame On Me (King 751)
TTITLE8=Waitin' For That Train (King 680)
TTITLE9=Barnyard Boogie (Kiing 664 - Unissued alt. take)
TTITLE10=Born To Be Blue (King 599)
TTITLE11=Leavin' Town (Unissued)
TTITLE12=Why Did You Leave Me, Dear (King 514)
TTITLE13=Dis Train Am Bound For Glory (King EP 313)
TTITLE14=Red River Valley (King EP 322)
TTITLE15=Fast Express (King 525)
TTITLE16=Give Me Your Hand (King EP 313)
TTITLE17=Midnite Special (King 514)
TTITLE18=Somebody Else's Darling (King 570)
TTITLE19=Down Home Boogie (King 739 - Unissued Take 3)
TTITLE20=Mississippi Shore (King 592)
TTITLE21=Let Conscience Be Your Guide (King 5407)
TTITLE22=Long Journey Home (King EP 322)
TTITLE23=Blues Stay Away From Me (King 803)
EXTD=
EXTT0=
EXTT1=
EXTT2=
EXTT3=
EXTT4=
EXTT5=
EXTT6=
EXTT7=
EXTT8=
EXTT9=
EXTT10=
EXTT11=
EXTT12=
EXTT13=
EXTT14=
EXTT15=
EXTT16=
EXTT17=
EXTT18=
EXTT19=
EXTT20=
EXTT21=
EXTT22=
EXTT23=
PLAYORDER=
